<?xml version="1.0" encoding="UTF-8" standalone="no"?>
<svg
   xmlns:dc="http://purl.org/dc/elements/1.1/"
   xmlns:cc="http://creativecommons.org/ns#"
   xmlns:rdf="http://www.w3.org/1999/02/22-rdf-syntax-ns#"
   xmlns:svg="http://www.w3.org/2000/svg"
   xmlns="http://www.w3.org/2000/svg"
   id="SVGRoot"
   version="1.1"
   viewBox="0 0 20 20"
   height="20px"
   width="20px">
  <defs
     id="defs3880" />
  <metadata
     id="metadata3883">
    <rdf:RDF>
      <cc:Work
         rdf:about="">
        <dc:format>image/svg+xml</dc:format>
        <dc:type
           rdf:resource="http://purl.org/dc/dcmitype/StillImage" />
        <dc:title></dc:title>
      </cc:Work>
    </rdf:RDF>
  </metadata>
  <g
     id="layer1">
    <g
       transform="matrix(3.7795275,0,0,3.7795275,-389.84612,-602.92735)"
       id="layer1-2">
      <g
         transform="matrix(6.4340454,0,0.09449093,5.792303,47.062091,92.291071)"
         id="g21"
         style="fill:currentColor">
        <g
           transform="matrix(1.9099033,0,-0.034836,2.3720411,-8.7567216,-19.570861)"
           id="g38"
           style="fill:#ffffff">
          <path
             style="fill:#ffffff;stroke-width:0.92305785"
             d="m 9.4778412,7.0225126 c -4.6869683,0 -8.48320053,2.8765447 -8.48320053,6.4280324 0,2.844404 2.42831613,5.246882 5.80038833,6.098596 0.4241601,0.05624 0.5832201,-0.136596 0.5832201,-0.305332 0,-0.152665 -0.010604,-0.658873 -0.010604,-1.197221 -2.1314042,0.297297 -2.6828122,-0.393717 -2.8524762,-0.755293 -0.095436,-0.184806 -0.508992,-0.755294 -0.8695281,-0.90796 -0.296912,-0.120526 -0.721072,-0.417822 -0.010604,-0.425857 0.6680521,-0.008 1.1452321,0.466032 1.3042921,0.658873 0.7634881,0.97224 1.9829481,0.699049 2.4707322,0.530313 0.074228,-0.417822 0.296912,-0.699049 0.540804,-0.85975 -1.8875121,-0.1607 -3.8598562,-0.715118 -3.8598562,-3.17384 0,-0.699049 0.328724,-1.277572 0.869528,-1.727534 -0.084832,-0.160701 -0.381744,-0.819574 0.084832,-1.7034288 0,0 0.7104681,-0.1687359 2.3328802,0.6588738 0.678656,-0.144631 1.399728,-0.216947 2.1208001,-0.216947 0.7210708,0 1.4421438,0.07231 2.1207998,0.216947 1.622412,-0.8356447 2.33288,-0.6588738 2.33288,-0.6588738 0.466576,0.8838548 0.169664,1.5427278 0.08483,1.7034288 0.540804,0.449962 0.869528,1.02045 0.869528,1.727534 0,2.466757 -1.982948,3.01314 -3.87046,3.17384 0.307516,0.200876 0.572616,0.586558 0.572616,1.189186 0,0.85975 -0.0106,1.550763 -0.0106,1.767709 0,0.168736 0.15906,0.369612 0.58322,0.305332 a 8.4959253,6.4376749 0 0 0 5.77918,-6.098596 c 0,-3.5514877 -3.796232,-6.4280324 -8.4831998,-6.4280324 z"
             id="path27" />
        </g>
      </g>
    </g>
    <path
       style="stroke-width:0.04032462;fill:#ffffff"
       d="m 10.13718,14.692311 c -0.599912,0 -1.199819,-0.242932 -1.711539,-0.73525 L 0.846388,6.681149 v 10.16181 c 0,1.187336 0.77992,2.150648 1.7420252,2.150648 H 17.685945 c 0.962107,0 1.742023,-0.962861 1.742023,-2.150648 V 6.681149 l -7.577799,7.280839 c -0.51172,0.488378 -1.114172,0.730323 -1.712989,0.730323 z M 1.4375878,5.431087 9.138783,12.828419 c 0.587569,0.564541 1.410675,0.564541 1.998244,0 l 7.701195,-7.397332 c 0.339329,-0.3584412 0.589746,-0.9095451 0.589746,-1.4920119 0,-1.1877869 -0.780279,-2.1506481 -1.742023,-2.1506481 H 2.5884132 c -0.9621052,0 -1.7420252,0.9628612 -1.7420252,2.1506481 0,0.5824668 0.2181175,1.1335707 0.5911998,1.4920119 z"
       id="path3967" />
  </g>
</svg>
