<?xml version="1.0" encoding="UTF-8" standalone="no"?>
<svg
   xmlns:dc="http://purl.org/dc/elements/1.1/"
   xmlns:cc="http://creativecommons.org/ns#"
   xmlns:rdf="http://www.w3.org/1999/02/22-rdf-syntax-ns#"
   xmlns:svg="http://www.w3.org/2000/svg"
   xmlns="http://www.w3.org/2000/svg"
   id="svg8"
   version="1.1"
   viewBox="0 0 210 297"
   height="297mm"
   width="210mm">
  <defs
     id="defs2" />
  <metadata
     id="metadata5">
    <rdf:RDF>
      <cc:Work
         rdf:about="">
        <dc:format>image/svg+xml</dc:format>
        <dc:type
           rdf:resource="http://purl.org/dc/dcmitype/StillImage" />
        <dc:title></dc:title>
      </cc:Work>
    </rdf:RDF>
  </metadata>
  <g
     id="layer1">
    <g
       transform="matrix(6.4340454,0,0.09449093,5.792303,47.062091,92.291071)"
       id="g21"
       style="fill:currentColor">
      <path
         id="path25"
         d="M 1.4164196,3.208399 C 0.78764187,3.0336454 0.32832709,2.4964733 0.27476952,1.8732308 0.20888439,1.1065343 0.66862771,0.44906951 1.4138553,0.24425918 1.6293512,0.1850346 1.9834704,0.1845766 2.195234,0.24324859 2.4329609,0.30911402 2.7836593,0.50683439 2.7826664,0.57443729 2.7824735,0.58757615 2.6948016,0.68680472 2.5878399,0.7949452 L 2.3933642,0.99156434 2.3077618,0.93027781 C 2.1051466,0.78521629 1.7775606,0.73616429 1.528753,0.81363079 1.1393821,0.93486173 0.87189869,1.3001616 0.86718109,1.717134 0.86423362,1.9776489 0.93299881,2.1588688 1.1088113,2.3539133 1.4030233,2.6803088 1.8752126,2.769242 2.258936,2.5705301 2.4366212,2.4785153 2.6058799,2.2675169 2.6424558,2.0924331 l 0.012796,-0.061253 H 2.228864 1.8024762 l 0.00418,-0.2848077 0.00418,-0.2848079 h 0.7171246 c 0.6537099,0 0.7181312,0.00282 0.7285081,0.031801 0.018184,0.0508 0.00639,0.4803056 -0.016339,0.5947763 C 3.1327773,2.6289383 2.7886524,3.0212477 2.274083,3.1894615 2.0813062,3.2524807 1.612291,3.2628368 1.4164196,3.208399 Z"
         style="fill:#ff2a2a;stroke-width:0.01871078" />
    </g>
  </g>
</svg>
