<?xml version="1.0" encoding="UTF-8" standalone="no"?>
<svg
   xmlns:dc="http://purl.org/dc/elements/1.1/"
   xmlns:cc="http://creativecommons.org/ns#"
   xmlns:rdf="http://www.w3.org/1999/02/22-rdf-syntax-ns#"
   xmlns:svg="http://www.w3.org/2000/svg"
   xmlns="http://www.w3.org/2000/svg"
   id="SVGRoot"
   version="1.1"
   viewBox="0 0 20 20"
   height="20px"
   width="20px">
  <defs
     id="defs3880" />
  <metadata
     id="metadata3883">
    <rdf:RDF>
      <cc:Work
         rdf:about="">
        <dc:format>image/svg+xml</dc:format>
        <dc:type
           rdf:resource="http://purl.org/dc/dcmitype/StillImage" />
        <dc:title></dc:title>
      </cc:Work>
    </rdf:RDF>
  </metadata>
  <g
     id="layer1">
    <g
       transform="matrix(3.7795275,0,0,3.7795275,-389.84612,-602.92735)"
       id="layer1-2">
      <g
         transform="matrix(6.4340454,0,0.09449093,5.792303,47.062091,92.291071)"
         id="g21"
         style="fill:currentColor">
        <g
           transform="matrix(1.9099033,0,-0.034836,2.3720411,-8.7567216,-19.570861)"
           id="g38"
           style="fill:#ffffff">
          <path
             style="fill:#ffffff;stroke-width:0.92305785"
             d="m 9.4778412,7.0225126 c -4.6869683,0 -8.48320053,2.8765447 -8.48320053,6.4280324 0,2.844404 2.42831613,5.246882 5.80038833,6.098596 0.4241601,0.05624 0.5832201,-0.136596 0.5832201,-0.305332 0,-0.152665 -0.010604,-0.658873 -0.010604,-1.197221 -2.1314042,0.297297 -2.6828122,-0.393717 -2.8524762,-0.755293 -0.095436,-0.184806 -0.508992,-0.755294 -0.8695281,-0.90796 -0.296912,-0.120526 -0.721072,-0.417822 -0.010604,-0.425857 0.6680521,-0.008 1.1452321,0.466032 1.3042921,0.658873 0.7634881,0.97224 1.9829481,0.699049 2.4707322,0.530313 0.074228,-0.417822 0.296912,-0.699049 0.540804,-0.85975 -1.8875121,-0.1607 -3.8598562,-0.715118 -3.8598562,-3.17384 0,-0.699049 0.328724,-1.277572 0.869528,-1.727534 -0.084832,-0.160701 -0.381744,-0.819574 0.084832,-1.7034288 0,0 0.7104681,-0.1687359 2.3328802,0.6588738 0.678656,-0.144631 1.399728,-0.216947 2.1208001,-0.216947 0.7210708,0 1.4421438,0.07231 2.1207998,0.216947 1.622412,-0.8356447 2.33288,-0.6588738 2.33288,-0.6588738 0.466576,0.8838548 0.169664,1.5427278 0.08483,1.7034288 0.540804,0.449962 0.869528,1.02045 0.869528,1.727534 0,2.466757 -1.982948,3.01314 -3.87046,3.17384 0.307516,0.200876 0.572616,0.586558 0.572616,1.189186 0,0.85975 -0.0106,1.550763 -0.0106,1.767709 0,0.168736 0.15906,0.369612 0.58322,0.305332 a 8.4959253,6.4376749 0 0 0 5.77918,-6.098596 c 0,-3.5514877 -3.796232,-6.4280324 -8.4831998,-6.4280324 z"
             id="path27" />
        </g>
      </g>
    </g>
    <path
       style="stroke-width:0.03280723;fill:#ffffff"
       d="m 13.844542,6.1464018 c 0,1.8152684 -2.366511,5.0501722 -3.405703,6.3534442 -0.249277,0.349091 -0.7089798,0.349091 -0.9582578,0 C 8.4413905,11.196574 6.0748815,7.9616702 6.0748815,6.1464018 c 0,-2.2032613 1.73846,-3.9896047 3.8848297,-3.9896047 2.1463688,0 3.8848308,1.7863434 3.8848308,3.9896047 z M 9.9597112,7.2102941 c 0.7154538,0 1.2949438,-0.5951152 1.2949438,-1.3298664 0,-0.7344215 -0.57949,-1.32987 -1.2949438,-1.32987 -0.715455,0 -1.2949442,0.5954485 -1.2949442,1.32987 0,0.7347512 0.5794892,1.3298664 1.2949442,1.3298664 z m 4.4546048,0.92426 c 0.01614,-0.039896 0.03237,-0.079792 0.04857,-0.1230202 l 3.755332,-1.5426464 c 0.511503,-0.2094531 1.065092,0.176209 1.065092,0.7414012 v 9.0032073 c 0,0.325818 -0.194245,0.61839 -0.488842,0.741401 l -4.69093,1.924985 V 8.8194308 c 0.113314,-0.229403 0.216903,-0.455481 0.310784,-0.6848821 z m -8.9092101,0 C 5.5989899,8.3639552 5.7025848,8.5900332 5.815893,8.8194362 V 17.177657 L 1.7015332,18.869915 C 1.1913263,19.049437 0.63611862,18.693706 0.63611862,18.128514 V 9.1253064 c 0,-0.32582 0.1934274,-0.648313 0.48851648,-0.7414013 L 5.0907239,6.754815 c 0.077701,0.4721022 0.2363277,0.9408812 0.414382,1.3797391 z M 11.24818,13.164781 c 0.449992,-0.548572 1.155737,-1.489455 1.819395,-2.530074 v 8.288401 L 6.8518471,17.097865 v -6.463158 c 0.663657,1.040619 1.3694023,1.981502 1.8193945,2.530074 0.6636596,0.881036 1.9132804,0.881036 2.5769384,0 z"
       id="path3956" />
  </g>
</svg>
