<?xml version="1.0" encoding="UTF-8" standalone="no"?>
<svg
   xmlns:dc="http://purl.org/dc/elements/1.1/"
   xmlns:cc="http://creativecommons.org/ns#"
   xmlns:rdf="http://www.w3.org/1999/02/22-rdf-syntax-ns#"
   xmlns:svg="http://www.w3.org/2000/svg"
   xmlns="http://www.w3.org/2000/svg"
   id="SVGRoot"
   version="1.1"
   viewBox="0 0 16 16"
   height="16px"
   width="16px">
  <defs
     id="defs10" />
  <metadata
     id="metadata13">
    <rdf:RDF>
      <cc:Work
         rdf:about="">
        <dc:format>image/svg+xml</dc:format>
        <dc:type
           rdf:resource="http://purl.org/dc/dcmitype/StillImage" />
        <dc:title></dc:title>
      </cc:Work>
    </rdf:RDF>
  </metadata>
  <g
     id="layer1">
    <g
       transform="translate(-0.17763123,-1.0733256)"
       id="g56"
       style="fill:#ffffff">
      <path
         style="fill:#ffffff"
         d="m 5.026,15 c 6.038,0 9.341,-5.003 9.341,-9.334 0,-0.14 0,-0.282 -0.006,-0.422 A 6.685,6.685 0 0 0 16,3.542 6.658,6.658 0 0 1 14.111,4.06 3.301,3.301 0 0 0 15.558,2.243 6.533,6.533 0 0 1 13.471,3.036 3.286,3.286 0 0 0 7.875,6.03 9.325,9.325 0 0 1 1.108,2.601 3.289,3.289 0 0 0 2.126,6.983 3.323,3.323 0 0 1 0.64,6.575 V 6.62 A 3.288,3.288 0 0 0 3.272,9.838 3.203,3.203 0 0 1 2.407,9.953 3.23,3.23 0 0 1 1.793,9.896 3.283,3.283 0 0 0 4.86,12.173 6.588,6.588 0 0 1 0.78,13.58 6.32,6.32 0 0 1 0,13.535 9.344,9.344 0 0 0 5.026,15 Z"
         id="path45" />
    </g>
  </g>
</svg>
