<?xml version="1.0" encoding="UTF-8" standalone="no"?>
<svg
   xmlns:dc="http://purl.org/dc/elements/1.1/"
   xmlns:cc="http://creativecommons.org/ns#"
   xmlns:rdf="http://www.w3.org/1999/02/22-rdf-syntax-ns#"
   xmlns:svg="http://www.w3.org/2000/svg"
   xmlns="http://www.w3.org/2000/svg"
   id="SVGRoot"
   version="1.1"
   viewBox="0 0 16 16"
   height="16px"
   width="16px">
  <defs
     id="defs10" />
  <metadata
     id="metadata13">
    <rdf:RDF>
      <cc:Work
         rdf:about="">
        <dc:format>image/svg+xml</dc:format>
        <dc:type
           rdf:resource="http://purl.org/dc/dcmitype/StillImage" />
        <dc:title></dc:title>
      </cc:Work>
    </rdf:RDF>
  </metadata>
  <g
     id="layer1">
    <path
       style="stroke-width:0.02996205;fill:#ffffff"
       d="m 11.538121,9.988295 a 0.64062506,0.80716348 0 1 1 0.640626,-0.807163 0.64062506,0.80716348 0 0 1 -0.640626,0.807163 m -7.0762406,0 A 0.64062506,0.80716348 0 1 1 5.1025054,9.181132 0.64062506,0.80716348 0 0 1 4.4618804,9.988295 M 11.767679,5.1291762 13.047324,2.3377293 A 0.26692712,0.33631812 0 1 0 12.586337,2.0014117 v 0 L 11.290678,4.82884 a 8.041179,10.131584 0 0 0 -6.5813541,0 L 3.4136556,2.0014117 A 0.26692712,0.33631812 0 1 0 2.9526789,2.3377293 v 0 L 4.2323231,5.1291762 C 2.0349793,6.6348654 0.53244891,9.437412 0.312501,12.74846 h 15.375 C 15.467553,9.437412 13.964749,6.6348654 11.767679,5.1291762"
       id="path23" />
  </g>
</svg>
