<?xml version="1.0" encoding="UTF-8" standalone="no"?>
<svg
   xmlns:dc="http://purl.org/dc/elements/1.1/"
   xmlns:cc="http://creativecommons.org/ns#"
   xmlns:rdf="http://www.w3.org/1999/02/22-rdf-syntax-ns#"
   xmlns:svg="http://www.w3.org/2000/svg"
   xmlns="http://www.w3.org/2000/svg"
   id="SVGRoot"
   version="1.1"
   viewBox="0 0 16 16"
   height="16px"
   width="16px">
  <defs
     id="defs10" />
  <metadata
     id="metadata13">
    <rdf:RDF>
      <cc:Work
         rdf:about="">
        <dc:format>image/svg+xml</dc:format>
        <dc:type
           rdf:resource="http://purl.org/dc/dcmitype/StillImage" />
        <dc:title></dc:title>
      </cc:Work>
    </rdf:RDF>
  </metadata>
  <g
     id="layer1">
    <path
       style="stroke-width:0.03099793;fill:#ffffff"
       d="M 8.0038144,3.8449608 8.2875181,3.3610796 C 8.4621083,3.0590411 8.8518211,2.9573367 9.1573461,3.1299309 9.4628778,3.3025193 9.5657636,3.6877769 9.3911742,3.9898154 L 6.6632203,8.6590788 h 1.9734781 c 0.639123,0 0.9976525,0.7427704 0.7201816,1.2574652 H 3.5736146 c -0.3522966,0 -0.6360065,-0.2804657 -0.6360065,-0.6287346 0,-0.3482646 0.2837099,-0.6287306 0.6360065,-0.6287306 H 5.1947958 L 7.2711604,5.1024265 6.6226879,3.9898154 C 6.4480978,3.6877769 6.5509842,3.305606 6.8565155,3.1299309 7.1620468,2.9573367 7.548637,3.0590417 7.7263437,3.3610796 Z M 5.5502152,10.563771 4.9391527,11.611655 C 4.7645625,11.913693 4.3748557,12.015404 4.0693246,11.84281 3.7637932,11.670216 3.6609067,11.284964 3.8354969,10.982925 l 0.4551773,-0.776671 c 0.5112984,-0.157185 0.9290657,-0.03698 1.259541,0.357517 z M 10.815944,8.6621597 h 1.655481 c 0.352297,0 0.636006,0.2804662 0.636006,0.6287362 0,0.3482635 -0.283709,0.6287291 -0.636006,0.6287291 h -0.919711 l 0.620419,1.0633 c 0.17459,0.302039 0.07171,0.68421 -0.233828,0.859885 -0.305533,0.172594 -0.692123,0.07089 -0.869829,-0.231155 C 10.024059,9.821002 9.238411,8.4803228 8.7177575,7.586537 8.1846376,6.677335 8.5649948,5.7650578 8.9422301,5.4568576 9.3599973,6.1657198 9.9835318,7.2351809 10.815944,8.6621597 Z M 8.0069308,0.36535384 c -4.2711981,0 -7.73180566,3.42104666 -7.73180566,7.64341736 0,4.2223718 3.46060756,7.6434168 7.73180566,7.6434168 4.2711992,0 7.7318062,-3.421045 7.7318062,-7.6434168 0,-4.2223707 -3.460607,-7.64341736 -7.7318062,-7.64341736 z M 14.741085,8.0087712 c 0,3.6583638 -2.996075,6.6571698 -6.7341542,6.6571698 -3.7006682,0 -6.7341529,-2.961825 -6.7341529,-6.6571698 0,-3.6583629 2.9960747,-6.6571695 6.7341529,-6.6571695 3.7006692,0 6.7341542,2.9618241 6.7341542,6.6571695 z"
       id="path34" />
  </g>
</svg>
